<svg width="2060" height="388" viewBox="0 0 2060 388" fill="none" xmlns="http://www.w3.org/2000/svg">
<g clip-path="url(#clip0_164_1380)">
<path fill-rule="evenodd" clip-rule="evenodd" d="M197.129 131.664C196.033 133.191 180.832 143.295 177.94 145.319L159.173 158.576C159.119 158.481 158.96 158.759 158.843 158.837L120.812 184.627C101.557 197.631 58.5137 227.049 35.4053 228.589C15.2291 229.934 3.18898 216.9 0.948925 198.608C0.226785 211.94 3.91086 237.49 14.1867 247.231C15.2716 248.26 15.6588 248.758 16.8202 249.903C18.8237 251.877 23.5947 254.886 26.6726 255.839C38.297 259.86 48.4727 258.433 60.2653 254.757C65.0549 253.263 70.2145 250.993 74.407 249.159C79.4157 246.969 83.6474 244.303 87.8611 242.288C95.3863 239.662 142.165 209.674 147.93 205.986L206.458 167.721C208.936 165.194 239.386 145.982 245.867 140.969C246.777 140.265 246.302 140.509 247.343 139.883C249.002 139.266 252.583 136.618 254.371 135.474C256.845 133.892 258.94 132.472 261.384 130.915C266.283 127.794 270.493 125.066 275.506 121.898C283.163 117.06 297.057 108.755 305.116 105.216C322.688 97.4963 340.212 91.1035 359.105 103.608C362.692 105.983 369.794 111.76 371.071 114.762C373.567 116.163 379.493 125.907 381.334 129.11C384.144 134 387.644 140.526 389.746 146.088L393.827 156.696C393.221 148.177 386.471 130.197 383.411 122.679C379.053 111.968 373.352 102.364 367.749 93.4881C366.187 91.0131 364.97 89.1276 363.346 86.799C360.611 82.8778 356.511 77.9388 352.954 75.0175C340.254 64.5839 327.673 61.186 310.158 65.8046C291.69 70.6752 266.841 85.7245 251.061 95.9638L197.129 131.664Z" fill="#18181C"/>
<path fill-rule="evenodd" clip-rule="evenodd" d="M247.852 238.881C246.428 240.319 236.184 245.415 233.563 246.843L205.366 262.992C201.28 265.434 195.179 269.648 191.102 271.298C190.615 272.065 160.269 290.697 156.653 292.89C124.117 312.624 81.9415 341.074 44.3607 314.012C42.8402 312.917 37.8718 308.51 37.1433 307.243C37.8901 310.336 48.2629 321.733 51.2046 324.53C58.7374 331.69 62.2719 332.476 70.0112 337.297C80.5053 340.709 85.0161 343.6 98.5339 343.057C108.996 342.636 117.905 340.458 126.637 337.184C134.579 334.206 143.19 330.249 150.2 326.497L172.86 314.315L234.267 280.349C237.357 278.64 253.444 269.999 255.67 269.562C257.268 267.924 281.433 256.369 285.536 254.484C295.888 249.725 305.698 245.222 316.206 240.8C329.228 235.319 372.591 216.998 385.771 230.066C390.016 232.779 391.612 240.471 391.274 246.173L391.508 248.92C393.214 240.121 398.479 224.86 397.789 215.5C397.566 205.415 397.237 203.345 392.517 196.603C386.454 192.201 384.237 189.85 374.206 189.634C366.417 189.467 359.106 190.755 351.926 192.613C338.956 195.969 326.844 201.142 315.19 206.013C300.7 212.069 278.541 222.7 264.314 230.367C260.055 232.663 251.931 237.49 247.852 238.881Z" fill="#18181C"/>
<path fill-rule="evenodd" clip-rule="evenodd" d="M183.123 34.8118C182.406 35.491 183.012 35.087 181.775 35.7538C179.19 37.1484 160.321 43.4911 150.076 48.9805C144.591 50.3872 118.937 64.4955 112.717 67.9367C100.285 74.8147 88.72 82.0258 77.141 89.265C65.5366 96.5202 54.8956 104.294 42.4685 111.032C35.3588 114.885 24.5959 119.194 27.4844 105.108C29.4657 95.4452 33.9645 90.6106 36.1681 85.7212L29.0058 96.0751C23.0574 105.129 12.8531 124.688 13.3482 135.404C13.9205 139.167 15.331 140.898 19.4797 141.11C29.4938 141.622 52.486 128.059 61.8159 123.156C67.0871 120.386 72.7916 116.76 77.6436 114.642L109.697 97.2525C120.872 91.6731 131.591 85.9265 142.913 80.3098C152.535 75.5367 205.402 50.448 212.7 50.6892C215.15 48.5828 230.561 45.1889 234.703 44.3204C251.871 40.7206 267.431 39.9917 284.912 42.7554C288.909 43.3867 305.318 46.4432 307.158 48.1057C313.358 49.1118 325.275 54.7892 330.467 57.4697C342.417 63.6391 347.873 69.2282 350.26 70.53C346.602 64.2956 330.642 51.3925 324.479 47.0679C319.822 43.8005 314.737 40.8306 308.992 37.9748C303.06 35.0249 294.564 31.9689 291.95 30.6182C289.42 30.1343 286.068 28.7751 283.261 28.0068C280.505 27.2533 277.669 26.4499 274.91 25.7829C272.316 25.1559 256.975 22.9481 256.653 22.7936C249.989 23.2172 242.79 22.4568 235.602 22.9766C222.75 23.9062 211.863 26.5381 199.638 30.0614C196.528 30.958 185.217 34.9017 183.123 34.8118Z" fill="#18181C"/>
<path fill-rule="evenodd" clip-rule="evenodd" d="M247.343 139.883C246.302 140.509 246.777 140.265 245.867 140.969C239.386 145.982 208.936 165.194 206.458 167.721C214.333 168.702 223.093 170.699 230.991 172.094C255.039 176.343 284.517 180.089 308.656 181.137C328.699 182.007 364.571 181.906 380.143 165.85C390.361 155.315 386.996 150.874 389.746 146.088C387.644 140.526 384.144 134 381.334 129.11C379.493 125.907 373.567 116.163 371.071 114.762C373.011 119.652 372.594 128.909 370.826 133.896C368.73 139.809 365.547 143.032 361.059 145.769C342.165 157.294 289.181 147.006 265.701 143.524L251.553 141.349C247.734 140.846 248.321 141.003 247.343 139.883Z" fill="#5E5D59"/>
<path fill-rule="evenodd" clip-rule="evenodd" d="M87.8611 242.288C83.6474 244.303 79.4157 246.969 74.407 249.159C70.2145 250.993 65.0549 253.263 60.2653 254.757C48.4727 258.433 38.297 259.86 26.6726 255.839L27.8674 257.073C20.9039 260.12 18.645 271.635 22.0957 281.299C24.1478 287.047 30.6988 299.081 33.9793 302.711C31.8213 295.429 29.8575 290.165 34.2581 283.261C43.0246 269.507 79.6644 269.333 94.6668 269.286C103.278 269.259 190.217 270.904 191.102 271.298C195.179 269.648 201.28 265.434 205.366 262.992L233.563 246.843C236.184 245.415 246.428 240.319 247.852 238.881C241.781 240.176 124.488 241.914 107.665 242.478C106.004 242.534 90.2821 243.391 88.963 242.942C87.4978 242.443 88.872 243.459 87.8611 242.288Z" fill="#5E5D59"/>
<path fill-rule="evenodd" clip-rule="evenodd" d="M336.044 302.989C334.668 305.007 312.683 317.316 308.955 319.433L281.081 334.776C267.211 341.553 256.995 346.952 241.994 353.72C201.313 372.073 168.67 382.618 123.502 369.922C113.361 367.072 109.395 364.882 102.054 362.558C102.378 363.209 101.81 362.54 102.625 363.276L105.099 364.659C106.369 365.269 107.469 365.801 108.643 366.396C125.529 374.948 145.265 381.725 164.141 384.695C211.073 392.078 226.669 381.934 265.226 364.899C270.162 362.718 274.8 360.231 279.506 357.965C284.202 355.703 288.824 353.497 293.247 351C302.247 345.918 311.67 341.23 320.125 335.94C324.642 333.114 329.083 330.589 333.494 328.094C335.889 326.739 337.998 325.564 340.38 324.375C346.342 321.396 351.226 320.65 345.484 328.07C346.544 326.71 347.616 326.027 349.156 324.456C355.575 317.908 366.942 302.055 371.582 294.328C376.616 285.947 388.767 262.418 389.893 253.132C388.244 259.955 373.952 281.126 368.972 283.974C365.973 285.689 363.574 286.779 360.593 288.616C356.421 291.187 337.964 302.709 336.044 302.989Z" fill="#18181C"/>
<path fill-rule="evenodd" clip-rule="evenodd" d="M172.86 314.315L150.2 326.497C143.19 330.249 134.579 334.207 126.637 337.184C117.905 340.458 108.996 342.636 98.5339 343.057C85.0161 343.6 80.5053 340.709 70.0112 337.297C72.7391 344.506 89.9501 357.148 95.5833 359.167C93.8717 357.335 89.2021 353.865 92.2288 350.476C96.7571 345.405 119.817 344.472 126.456 343.995C160.303 341.563 196.51 340.874 231.057 338.529C236.531 338.157 280.15 334.236 281.081 334.776L308.955 319.433C312.683 317.316 334.668 305.007 336.044 302.99C316.903 307.263 317.857 307.022 298.064 308.959C284.466 310.289 270.265 310.954 256.586 311.549C249.852 311.843 181.816 315.097 174.657 314.738C172.798 314.645 173.858 314.97 172.86 314.315Z" fill="#5E5D59"/>
<path fill-rule="evenodd" clip-rule="evenodd" d="M13.3481 135.404C10.0183 138.815 5.39936 155.763 4.1175 161.84C2.0875 171.458 0.407676 183.743 0.990641 193.996C0.102026 186.844 5.5964 169.179 10.6808 161.216C16.4705 152.148 24.5566 145.276 35.2157 142.409C43.9274 140.067 52.4047 139.403 61.903 140.06C78.9126 141.235 95.3414 144.287 111.729 147.715C119.662 149.375 127.561 150.999 135.527 152.856C139.379 153.753 143.535 154.574 147.398 155.488L156.175 157.251C156.608 157.342 157.37 157.523 157.622 157.668C159.146 158.548 157.94 157.387 158.843 158.837C158.96 158.759 159.119 158.481 159.173 158.576L177.94 145.319C180.833 143.296 196.033 133.191 197.129 131.664C194.45 132.291 146.329 123.212 138.733 122.035C128.846 120.503 118.725 118.991 108.721 117.809C104.85 117.352 78.4754 115.377 77.6436 114.642C72.7916 116.76 67.0871 120.386 61.8158 123.156C52.486 128.059 29.4938 141.622 19.4797 141.11C15.331 140.898 13.9204 139.167 13.3481 135.404Z" fill="#5E5D59"/>
<path fill-rule="evenodd" clip-rule="evenodd" d="M255.67 269.562C294.213 265.977 325.439 266.177 361.622 248.155C366.436 245.757 370.688 242.813 374.574 239.898L382.898 232.304C385.25 229.295 384.216 230.073 385.771 230.066C372.591 216.998 329.227 235.319 316.205 240.8C305.698 245.222 295.888 249.725 285.536 254.484C281.433 256.369 257.268 267.924 255.67 269.562Z" fill="#5E5D59"/>
<path fill-rule="evenodd" clip-rule="evenodd" d="M150.076 48.9804C160.321 43.491 179.19 37.1483 181.775 35.7537C183.011 35.0869 182.406 35.4909 183.122 34.8117C175.552 33.5013 145.18 34.4981 136.146 34.9979C110.561 36.4144 82.8583 42.1044 62.6946 56.9498C54.2051 63.1996 50.517 67.4385 44.3311 74.7621C43.062 76.2645 39.7668 80.0362 39.4895 81.6606L48.4179 73.057C73.6258 51.2387 113.418 48.8683 145.764 48.169C150.005 48.0771 149.214 48.1069 150.076 48.9804Z" fill="#5E5D59"/>
<path fill-rule="evenodd" clip-rule="evenodd" d="M212.7 50.6893C218.021 49.4308 270.48 55.3985 286.004 55.3579C293.426 55.3392 303.953 54.8765 305.276 47.7027L307.158 48.1057C305.318 46.4432 288.909 43.3868 284.912 42.7554C267.431 39.9917 251.871 40.7206 234.703 44.3204C230.561 45.1889 215.15 48.5828 212.7 50.6893Z" fill="#5E5D59"/>
<path fill-rule="evenodd" clip-rule="evenodd" d="M256.653 22.7935C256.975 22.948 272.316 25.1558 274.909 25.7828C277.669 26.4498 280.505 27.2532 283.261 28.0067C286.068 28.775 289.42 30.1342 291.95 30.6182C289.333 26.0467 270.624 15.8165 265.831 13.6167C260.493 11.1667 238.18 4.23864 232.127 3.94219L229.825 4.27727C229.356 4.2352 228.082 3.97366 227.309 3.86933C225.661 3.64712 223.886 3.54281 222.066 3.35018C215.755 2.68167 190.811 0.625864 187.741 2.66804C204.436 2.13395 227.483 8.23194 242.934 14.3845C249.032 16.8124 252.752 19.892 257.532 22.5445L256.653 22.7935Z" fill="#5E5D59"/>
<path fill-rule="evenodd" clip-rule="evenodd" d="M187.742 2.66808C190.811 0.625905 215.755 2.68171 222.066 3.35022C223.886 3.54285 225.661 3.64716 227.309 3.86937C228.082 3.9737 229.357 4.23524 229.825 4.27732L232.127 3.94223C229.753 3.87498 216.222 1.64372 209.388 1.2301C164.392 -1.49128 125.396 10.9917 88.7433 35.2761C85.9166 37.1488 83.9453 38.5824 81.1695 40.7166C79.9001 41.6929 78.9399 42.3963 77.5965 43.402C76.1954 44.4518 74.8139 45.2481 73.8452 46.6062C75.9611 45.7793 77.8623 44.1394 79.9598 42.8743C102.592 29.224 129.922 17.2951 155.28 9.74911C163.115 7.41756 179.565 2.72939 187.742 2.66808Z" fill="#18181C"/>
<path fill-rule="evenodd" clip-rule="evenodd" d="M216.741 386.529C238.331 386.915 270.77 376.983 287.811 369.174C298.39 364.326 307.562 359.252 316.274 353.296C321.02 350.052 338.011 337.087 340.492 333.111C338.184 334.655 336.44 336.246 334.15 337.906C317.689 349.842 304.108 357.747 284.997 366.357C262.924 376.302 240.879 382.733 216.741 386.529Z" fill="#18181C"/>
<path fill-rule="evenodd" clip-rule="evenodd" d="M392.517 196.603C397.236 203.345 397.566 205.415 397.788 215.5C399.561 211.921 399.109 198.545 399.027 193.677C398.967 190.2 398.67 186.517 398.344 183.057C398.175 181.267 398.007 179.541 397.84 177.756C397.777 177.071 397.722 175.748 397.62 175.15L396.606 172.552C396.224 183.276 396.178 187.267 392.517 196.603Z" fill="#5E5D59"/>
</g>
<path d="M561.5 375C540.5 375 522.333 371 507 363C492 355 480.333 343.5 472 328.5C464 313.5 460 295.667 460 275H502.5C502.5 286.667 504.333 297.333 508 307C512 316.333 518.167 323.833 526.5 329.5C535.167 334.833 546.667 337.5 561 337.5C575 337.5 586 334.833 594 329.5C602.333 324.167 608.167 317 611.5 308C615.167 298.667 617 288.167 617 276.5V19H659V276.5C659 307.833 650.333 332.167 633 349.5C616 366.5 592.167 375 561.5 375ZM775.445 375C755.779 375 739.279 371.5 725.945 364.5C712.612 357.5 702.612 348.167 695.945 336.5C689.612 324.833 686.445 312.167 686.445 298.5C686.445 281.5 690.779 267.167 699.445 255.5C708.445 243.833 720.945 235 736.945 229C753.279 222.667 772.445 219.5 794.445 219.5H861.445C861.445 203.167 858.945 189.667 853.945 179C848.945 168.333 841.779 160.5 832.445 155.5C823.112 150.167 811.945 147.5 798.945 147.5C782.612 147.5 768.445 151.667 756.445 160C744.445 168.333 737.112 181.167 734.445 198.5H691.445C693.445 180.5 699.279 165.333 708.945 153C718.945 140.667 731.612 131.333 746.945 125C762.612 118.333 779.945 115 798.945 115C822.612 115 842.112 119.333 857.445 128C873.112 136.333 884.612 148.167 891.945 163.5C899.612 178.5 903.445 196.167 903.445 216.5V369H868.445L864.445 326.5H862.445C857.779 334.5 852.279 341.5 845.945 347.5C839.945 353.5 833.279 358.5 825.945 362.5C818.612 366.5 810.612 369.5 801.945 371.5C793.612 373.833 784.779 375 775.445 375ZM782.945 339.5C795.612 339.5 806.779 337.167 816.445 332.5C826.112 327.5 834.279 320.833 840.945 312.5C847.612 304.167 852.612 294.833 855.945 284.5C859.612 273.833 861.445 263 861.445 252H797.945C781.612 252 768.445 254 758.445 258C748.445 261.667 741.279 266.833 736.945 273.5C732.612 280.167 730.445 287.833 730.445 296.5C730.445 305.167 732.445 312.833 736.445 319.5C740.779 325.833 746.779 330.833 754.445 334.5C762.445 337.833 771.945 339.5 782.945 339.5ZM1026.96 375C1007.29 375 989.624 371.667 973.957 365C958.29 358 945.624 348.333 935.957 336C926.624 323.333 920.79 308.5 918.457 291.5H961.457C963.457 299.833 966.79 308 971.457 316C976.457 323.667 983.457 330 992.457 335C1001.79 340 1013.46 342.5 1027.46 342.5C1039.46 342.5 1049.29 340.833 1056.96 337.5C1064.62 333.833 1070.29 329.167 1073.96 323.5C1077.96 317.5 1079.96 311 1079.96 304C1079.96 295.333 1077.46 288.333 1072.46 283C1067.46 277.667 1060.12 273.167 1050.46 269.5C1041.12 265.5 1029.96 261.667 1016.96 258C1006.96 255 996.79 251.833 986.457 248.5C976.124 244.833 966.624 240.5 957.957 235.5C949.624 230.5 942.79 224 937.457 216C932.457 208 929.957 198 929.957 186C929.957 172.667 933.624 160.667 940.957 150C948.29 139.333 958.624 130.833 971.957 124.5C985.624 118.167 1001.62 115 1019.96 115C1046.29 115 1067.79 121.5 1084.46 134.5C1101.46 147.5 1111.29 166.333 1113.96 191H1072.46C1071.12 177 1065.79 166.333 1056.46 159C1047.46 151.333 1035.12 147.5 1019.46 147.5C1004.12 147.5 992.29 150.833 983.957 157.5C975.957 164.167 971.957 172.5 971.957 182.5C971.957 189.167 973.957 194.667 977.957 199C981.957 203.333 988.29 207.167 996.957 210.5C1005.96 213.5 1017.29 217.167 1030.96 221.5C1046.29 226.167 1060.79 231.333 1074.46 237C1088.46 242.667 1099.79 250.167 1108.46 259.5C1117.46 268.5 1121.96 280.833 1121.96 296.5C1122.29 311.833 1118.46 325.5 1110.46 337.5C1102.79 349.167 1091.79 358.333 1077.46 365C1063.46 371.667 1046.62 375 1026.96 375ZM1144.65 369V19H1186.65V162.5H1188.65C1198.65 146.833 1210.82 135 1225.15 127C1239.82 119 1255.48 115 1272.15 115C1291.15 115 1307.82 119 1322.15 127C1336.48 134.667 1347.48 146.667 1355.15 163C1363.15 179 1367.15 199.333 1367.15 224V369H1325.65V228.5C1325.65 202.833 1320.32 183.5 1309.65 170.5C1299.32 157.5 1283.82 151 1263.15 151C1248.82 151 1235.82 154.5 1224.15 161.5C1212.48 168.5 1203.32 178.667 1196.65 192C1189.98 205 1186.65 221.167 1186.65 240.5V369H1144.65ZM1510.84 375C1487.51 375 1466.51 369.667 1447.84 359C1429.18 348.333 1414.34 333.333 1403.34 314C1392.68 294.333 1387.34 271.333 1387.34 245C1387.34 218.667 1392.84 195.833 1403.84 176.5C1414.84 156.833 1429.68 141.667 1448.34 131C1467.34 120.333 1488.51 115 1511.84 115C1535.18 115 1556.18 120.333 1574.84 131C1593.51 141.667 1608.18 156.833 1618.84 176.5C1629.84 195.833 1635.34 218.667 1635.34 245C1635.34 271.333 1629.84 294.333 1618.84 314C1607.84 333.333 1592.84 348.333 1573.84 359C1555.18 369.667 1534.18 375 1510.84 375ZM1510.84 342.5C1525.18 342.5 1538.51 339 1550.84 332C1563.18 324.667 1573.18 313.833 1580.84 299.5C1588.51 285.167 1592.34 267 1592.34 245C1592.34 223 1588.51 204.833 1580.84 190.5C1573.51 175.833 1563.68 165 1551.34 158C1539.01 151 1525.84 147.5 1511.84 147.5C1497.84 147.5 1484.51 151 1471.84 158C1459.51 165 1449.51 175.833 1441.84 190.5C1434.18 204.833 1430.34 223 1430.34 245C1430.34 267 1434.18 285.167 1441.84 299.5C1449.51 313.833 1459.34 324.667 1471.34 332C1483.68 339 1496.84 342.5 1510.84 342.5ZM1657.79 369V121H1694.79L1698.79 162H1700.79C1709.13 146.333 1720.13 134.667 1733.79 127C1747.79 119 1762.96 115 1779.29 115C1792.29 115 1803.96 117 1814.29 121C1824.96 124.667 1834.13 130.167 1841.79 137.5C1849.46 144.833 1855.63 154.167 1860.29 165.5H1862.29C1871.29 148.833 1882.79 136.333 1896.79 128C1910.79 119.333 1927.96 115 1948.29 115C1966.63 115 1982.79 119 1996.79 127C2010.79 134.667 2021.79 146.667 2029.79 163C2037.79 179 2041.79 199.333 2041.79 224V369H2000.29V228.5C2000.29 202.833 1995.13 183.5 1984.79 170.5C1974.46 157.5 1958.79 151 1937.79 151C1924.79 151 1913.29 153.667 1903.29 159C1893.29 164.333 1885.29 172.833 1879.29 184.5C1873.63 195.833 1870.79 210.5 1870.79 228.5V369H1828.79V228.5C1828.79 202.833 1823.63 183.5 1813.29 170.5C1802.96 157.5 1788.13 151 1768.79 151C1757.13 151 1745.96 154.5 1735.29 161.5C1724.96 168.5 1716.46 178.667 1709.79 192C1703.13 205 1699.79 221.167 1699.79 240.5V369H1657.79Z" fill="black"/>
<defs>
<clipPath id="clip0_164_1380">
<rect width="400" height="388" fill="white"/>
</clipPath>
</defs>
</svg>
